<svg width="1024" height="1024" viewBox="0 0 1024 1024" fill="none" xmlns="http://www.w3.org/2000/svg">
<g clip-path="url(#clip0_182_207)">
<path d="M602.51 512L1005.26 109.255C1017.26 97.2529 1024 80.9742 1024 64.0002C1024 47.0263 1017.26 30.7476 1005.26 18.7452C993.253 6.74286 976.974 1.13252e-06 960 9.53674e-07C943.026 7.74825e-07 926.748 6.74286 914.745 18.7452L512 421.49L109.255 18.7452C97.2529 6.74286 80.9742 0 64.0002 0C47.0263 0 30.7476 6.74286 18.7452 18.7452C6.74286 30.7476 0 47.0263 0 64.0002C0 80.9742 6.74286 97.2529 18.7452 109.255L421.49 512L18.7452 914.745C6.74286 926.748 7.74825e-07 943.026 9.53674e-07 960C1.13252e-06 976.974 6.74286 993.253 18.7452 1005.26C30.7476 1017.26 47.0263 1024 64.0002 1024C80.9742 1024 97.2529 1017.26 109.255 1005.26L512 602.51L914.745 1005.26C926.748 1017.26 943.026 1024 960 1024C976.974 1024 993.253 1017.26 1005.26 1005.26C1017.26 993.253 1024 976.974 1024 960C1024 943.026 1017.26 926.748 1005.26 914.745L602.51 512Z" fill="white"/>
</g>
<defs>
<clipPath id="clip0_182_207">
<rect width="1024" height="1024" fill="white"/>
</clipPath>
</defs>
</svg>
