<svg width="16" height="16" viewBox="0 0 16 16" fill="none" xmlns="http://www.w3.org/2000/svg">
<g clip-path="url(#clip0_18_121)">
<path d="M6.77591 7.44494V1.32654C6.77591 0.651339 7.32471 0.102539 7.99991 0.102539C8.67511 0.102539 9.22391 0.651339 9.22391 1.32654V7.44494C9.22391 8.12014 8.67511 8.66894 7.99991 8.66894C7.32471 8.66894 6.77591 8.12014 6.77591 7.44494ZM12.8511 1.89774C12.4543 1.58414 11.8767 1.65294 11.5631 2.04974C11.2495 2.44814 11.3167 3.02414 11.7151 3.33934C13.1711 4.48814 14.0047 6.20814 14.0047 8.05774C14.0047 11.3681 11.3103 14.0625 8.00151 14.0625C4.69111 14.0625 1.99671 11.3681 1.99671 8.05774C1.99671 6.20814 2.83031 4.48814 4.28471 3.34094C4.68311 3.02734 4.75031 2.44974 4.43671 2.05134C4.12311 1.65294 3.54711 1.58574 3.14711 1.89934C1.24791 3.39694 0.159912 5.64174 0.159912 8.05774C0.159912 12.3809 3.67671 15.8977 7.99991 15.8977C12.3231 15.8977 15.8399 12.3809 15.8399 8.05774C15.8399 5.64014 14.7503 3.39534 12.8511 1.89774Z" fill="black"/>
</g>
<defs>
<clipPath id="clip0_18_121">
<rect width="16" height="16" fill="white"/>
</clipPath>
</defs>
</svg>
